<svg width="125" height="125" viewBox="0 0 125 125" fill="none" xmlns="http://www.w3.org/2000/svg">
<path fill-rule="evenodd" clip-rule="evenodd" d="M103.127 53.0209C101.512 36.4584 91.7203 10.4167 61.4599 10.4167C31.1995 10.4167 21.4078 36.4584 19.7932 53.0209C14.1292 55.1705 10.3932 60.6086 10.4181 66.6667V73.9584C10.4181 82.0126 16.9474 88.5417 25.0016 88.5417C33.0557 88.5417 39.5849 82.0126 39.5849 73.9584V66.6667C39.5587 60.7394 35.9599 55.4131 30.4703 53.1772C31.512 43.5938 36.6161 20.8334 61.4599 20.8334C86.3036 20.8334 91.3557 43.5938 92.3974 53.1772C86.9189 55.4179 83.3383 60.7478 83.3349 66.6667V73.9584C83.3575 79.5573 86.5724 84.6526 91.6161 87.0834C89.4286 91.198 83.8557 96.7709 70.1578 98.4376C67.4196 94.2797 62.1221 92.6406 57.5143 94.5255C52.9064 96.4105 50.2765 101.292 51.2374 106.177C52.1983 111.062 56.4814 114.583 61.4599 114.583C65.3939 114.562 68.9801 112.325 70.7307 108.802C93.0745 106.25 100.21 94.7397 102.449 87.9688C108.508 86.0062 112.583 80.3268 112.502 73.9584V66.6667C112.527 60.6086 108.791 55.1705 103.127 53.0209ZM29.1682 73.9584C29.1682 76.2596 27.3027 78.1251 25.0016 78.1251C22.7004 78.1251 20.8349 76.2596 20.8349 73.9584V66.6667C20.8349 65.1781 21.629 63.8026 22.9182 63.0583C24.2074 62.314 25.7957 62.314 27.0849 63.0583C28.3741 63.8026 29.1682 65.1781 29.1682 66.6667V73.9584ZM93.7515 66.6667C93.7515 64.3656 95.617 62.5001 97.9182 62.5001C100.219 62.5001 102.085 64.3656 102.085 66.6667V73.9584C102.085 76.2596 100.219 78.1251 97.9182 78.1251C95.617 78.1251 93.7515 76.2596 93.7515 73.9584V66.6667Z" fill="white"/>
</svg>
