<?xml version="1.0" encoding="utf-8"?>
<!-- Generator: Adobe Illustrator 25.0.0, SVG Export Plug-In . SVG Version: 6.00 Build 0)  -->
<svg version="1.1" id="Capa_1" xmlns="http://www.w3.org/2000/svg" xmlns:xlink="http://www.w3.org/1999/xlink" x="0px" y="0px"
	 viewBox="0 0 1080 1080" style="enable-background:new 0 0 1080 1080;" xml:space="preserve">
<style type="text/css">
	.st0{fill:#793995;}
	.st1{fill:#D2DD26;}
</style>
<g>
	<g>
		<path class="st0" d="M267.29,540c0,99.17,71.52,181.88,165.54,199.23c11.98,2.35,24.4,3.47,37.05,3.47
			c14.55,0,28.65-1.57,42.31-4.48c80.03-17.01,142.82-81.59,157.03-162.63c2.13-11.53,3.25-23.5,3.25-35.59h46.34
			c0,5.15-0.11,10.18-0.56,15.22C711.3,670.84,625.01,765.42,513.31,785c-14.1,2.57-28.65,3.92-43.43,3.92
			c-5.48,0-10.86-0.22-16.23-0.56C323.93,779.97,220.96,671.85,220.96,540c0-137.22,111.7-248.92,248.92-248.92h366v46.34h-366
			C358.18,337.42,267.29,428.3,267.29,540z"/>
	</g>
	<g>
		<path class="st1" d="M835.87,291.08c-84.62,0-161.17,16.23-225.42,46.34c-65.36,30.78-117.86,76.11-153.11,133.75
			c-49.92,81.82-58.31,177.63-24.51,268.06c4.7,12.42,10.18,24.85,16.45,37.16l4.37,11.98c5.37,0.34,10.75,0.56,16.23,0.56
			c14.77,0,29.32-1.34,43.43-3.92l-2.01-19.25c0-9.85,0.22-18.92,0.89-27.53c6.38-100.17,51.15-119.87,157.03-162.63
			c1.68-0.67,3.36-1.34,5.15-2.01c9.63-3.81,19.59-7.83,30.11-12.2c4.7-1.9,9.29-4.03,13.77-6.16
			c103.42-49.69,140.8-155.8,140.8-240.97v-23.17H835.87z M686.9,518.62c-10.41,4.25-20.26,8.28-29.88,12.09
			c-101.96,41.08-169.45,68.39-187.36,172.7c-20.71-71.07-11.64-144.61,27.09-208.18c58.09-95.02,172.03-151.66,314.96-157.37
			C805.21,406.81,769.95,484.48,686.9,518.62z"/>
	</g>
</g>
</svg>
